<svg width="194" height="194" viewBox="0 0 194 194" fill="none" xmlns="http://www.w3.org/2000/svg">
<path d="M40.8883 96.728C49.1842 93.3521 52.7116 82.7572 48.767 73.0637C44.8224 63.3701 34.8994 58.2486 26.6035 61.6245C18.3076 65.0004 14.7802 75.5953 18.7248 85.2888C22.6694 94.9824 32.5923 100.104 40.8883 96.728Z" stroke="black" stroke-width="5"/>
<path d="M150.223 119.052C157.852 123.746 168.481 120.325 173.965 111.411C179.449 102.498 177.711 91.467 170.083 86.7736C162.454 82.0803 151.825 85.5014 146.341 94.4149C140.857 103.328 142.595 114.359 150.223 119.052Z" stroke="black" stroke-width="5"/>
<path d="M77.8021 72.75C88.4048 72.75 97 62.7977 97 50.5209C97 38.244 88.4048 28.2917 77.8021 28.2917C67.1994 28.2917 58.6042 38.244 58.6042 50.5209C58.6042 62.7977 67.1994 72.75 77.8021 72.75Z" stroke="black" stroke-width="5"/>
<path d="M123.84 81.1817C133.473 84.3702 144.222 78.0754 147.847 67.1218C151.473 56.1683 146.602 44.7038 136.969 41.5153C127.336 38.3267 116.587 44.6215 112.962 55.5751C109.336 66.5287 114.206 77.9931 123.84 81.1817Z" stroke="black" stroke-width="5"/>
<path d="M64.3973 103.673C78.1349 85.2311 105.761 85.2311 119.499 103.673L140.851 132.339C151.116 146.119 141.281 165.708 124.098 165.708C121.863 165.708 119.636 165.434 117.468 164.892L107.181 162.318C97.171 159.814 86.7073 159.741 76.6637 162.106L64.3419 165.007C62.3635 165.473 60.3378 165.708 58.3053 165.708C41.7385 165.708 32.2563 146.821 42.153 133.535L64.3973 103.673Z" stroke="black" stroke-width="5"/>
</svg>
